<svg width="99" height="85" viewBox="0 0 99 85" fill="none" xmlns="http://www.w3.org/2000/svg">
<path d="M20.7103 29.5219L11.3248 42.5622L4.73624 27.9054L20.7103 29.5219Z" fill="#229E1F"/>
<path d="M43.4339 28.6034L34.0482 41.6437L27.4597 26.9868L43.4339 28.6034Z" fill="#113C10"/>
<path d="M87.1741 23.4581L71.3866 26.3823L76.7508 11.2334L87.1741 23.4581Z" fill="#229E1F"/>
<path d="M28.3906 46.5674L19.005 59.6078L12.4165 44.9509L28.3906 46.5674Z" fill="#1D5618"/>
<path d="M51.114 45.6489L41.7285 58.6892L35.14 44.0322L51.114 45.6489Z" fill="#29752C"/>
<path d="M80.949 41.0884L65.1613 44.0125L70.5255 28.8636L80.949 41.0884Z" fill="#1D5618"/>
<path d="M35.8834 64.0952L26.4979 77.1354L19.9094 62.4785L35.8834 64.0952Z" fill="#072408"/>
<path d="M58.6069 63.1765L49.2214 76.217L42.6328 61.5601L58.6069 63.1765Z" fill="#49B937"/>
<path d="M74.2552 58.9373L58.4677 61.8615L63.8316 46.7123L74.2552 58.9373Z" fill="#072408"/>
<path d="M13.4992 13.7296L20.0877 28.3865L4.11359 26.77L13.4992 13.7296Z" fill="#49B937"/>
<path d="M36.2227 12.8111L42.8112 27.468L26.8372 25.8513L36.2227 12.8111Z" fill="#072408"/>
<path d="M92.8726 7.05801L87.5086 22.2071L77.085 9.98212L92.8726 7.05801Z" fill="#49B937"/>
<path d="M21.1793 30.7752L27.7678 45.4321L11.7938 43.8155L21.1793 30.7752Z" fill="#29752C"/>
<path d="M43.9028 29.8565L50.4915 44.5135L34.5173 42.897L43.9028 29.8565Z" fill="#1D5618"/>
<path d="M86.6474 24.6882L81.2833 39.8372L70.8599 27.6124L86.6474 24.6882Z" fill="#29752C"/>
<path d="M28.6722 48.3028L35.2607 62.9598L19.2867 61.3431L28.6722 48.3028Z" fill="#113C10"/>
<path d="M51.3958 47.3843L57.9843 62.0413L42.0101 60.4246L51.3958 47.3843Z" fill="#229E1F"/>
<path d="M79.9536 42.5371L74.5896 57.686L64.1661 45.4613L79.9536 42.5371Z" fill="#113C10"/>
<path d="M61.9315 73.8646L59.2443 65.4203H60.6301L62.2569 70.704C62.3051 70.8326 62.3492 70.9856 62.3895 71.1624C62.4297 71.3313 62.4658 71.5043 62.4979 71.6811C62.53 71.858 62.5582 72.023 62.5823 72.1757C62.6143 72.3285 62.6425 72.4532 62.6666 72.5497L62.3172 72.5376C62.4377 72.1113 62.53 71.7817 62.5943 71.5485C62.6666 71.3152 62.7228 71.1383 62.763 71.0177C62.8033 70.8891 62.8394 70.7805 62.8715 70.692L64.3899 66.8799H65.5588L67.0289 70.692C67.1092 70.885 67.1776 71.078 67.2338 71.271C67.2981 71.456 67.3543 71.645 67.4025 71.838C67.4507 72.023 67.503 72.2199 67.5592 72.4291L67.2458 72.5135C67.2861 72.2964 67.3141 72.1275 67.3302 72.0069C67.3543 71.8782 67.3743 71.7736 67.3904 71.6932C67.4066 71.6129 67.4225 71.5364 67.4386 71.464C67.4548 71.3837 67.4789 71.2831 67.5109 71.1624C67.5512 71.0418 67.6033 70.877 67.6676 70.6678L69.2703 65.4203H70.6682L67.9809 73.8646H67.0771L64.8478 68.5809L64.9562 68.6291L62.8112 73.8646H61.9315Z" fill="#072408"/>
<path d="M74.7895 74.1708C74.3316 74.1708 73.9057 74.1105 73.5121 73.9899C73.1265 73.8693 72.773 73.6883 72.4517 73.447C72.1384 73.1978 71.8571 72.8921 71.6082 72.5302L72.4999 71.5049C72.8935 72.0677 73.2711 72.4579 73.6327 72.675C73.9942 72.8921 74.4239 73.0007 74.9221 73.0007C75.2274 73.0007 75.5046 72.9525 75.7535 72.8559C76.0025 72.7594 76.1994 72.6267 76.344 72.4579C76.4886 72.289 76.5609 72.096 76.5609 71.8788C76.5609 71.7341 76.5368 71.5973 76.4886 71.4687C76.4404 71.3401 76.364 71.2233 76.2597 71.1188C76.1633 71.0143 76.0348 70.9178 75.8741 70.8293C75.7215 70.7408 75.5407 70.6645 75.3318 70.6001C75.1228 70.5277 74.8818 70.4674 74.6087 70.4192C74.1749 70.3306 73.7973 70.2141 73.476 70.0693C73.1547 69.9246 72.8855 69.7436 72.6686 69.5265C72.4517 69.3093 72.291 69.064 72.1866 68.7906C72.0822 68.5091 72.0299 68.1954 72.0299 67.8497C72.0299 67.5119 72.1022 67.1982 72.2468 66.9087C72.3994 66.6192 72.6043 66.37 72.8614 66.1608C73.1265 65.9437 73.4358 65.7789 73.7893 65.6662C74.1429 65.5456 74.5244 65.4853 74.9341 65.4853C75.3679 65.4853 75.7656 65.5415 76.1271 65.6541C76.4886 65.7668 76.8099 65.9357 77.0912 66.1608C77.3724 66.3779 77.6053 66.6474 77.7901 66.969L76.8742 67.8738C76.7135 67.6084 76.5328 67.3872 76.332 67.2103C76.1312 67.0253 75.9102 66.8887 75.6692 66.8002C75.4282 66.7037 75.171 66.6554 74.898 66.6554C74.5846 66.6554 74.3116 66.7037 74.0785 66.8002C73.8455 66.8967 73.6608 67.0334 73.5242 67.2103C73.3957 67.3792 73.3314 67.5802 73.3314 67.8135C73.3314 67.9824 73.3635 68.1392 73.4278 68.2839C73.4921 68.4207 73.5885 68.5453 73.717 68.6579C73.8536 68.7624 74.0344 68.8589 74.2593 68.9474C74.4842 69.0278 74.7534 69.1002 75.0667 69.1646C75.5085 69.2611 75.9022 69.3858 76.2476 69.5385C76.593 69.6833 76.8863 69.8563 77.1273 70.0573C77.3683 70.2582 77.5491 70.4836 77.6696 70.7328C77.7981 70.982 77.8624 71.2515 77.8624 71.541C77.8624 72.0798 77.7378 72.5464 77.4888 72.9404C77.2398 73.3344 76.8863 73.6401 76.4284 73.8572C75.9705 74.0664 75.4241 74.1708 74.7895 74.1708Z" fill="#072408"/>
<path d="M62.6731 82.4018L60.8479 77.0429L61.9084 77.0326L63.2136 81.0442L62.979 81.0238L64.3964 77.8901H65.0286L66.4561 81.034L66.1808 81.0544L67.4961 77.0429H68.5566L66.7518 82.4018H66.0278L64.5391 78.9925L64.7736 79.0231L63.3869 82.4018H62.6731ZM70.706 82.4018V77.0429H71.7563V82.4018H70.706ZM71.2159 75.8588C70.9915 75.8588 70.8182 75.8009 70.6958 75.6853C70.5735 75.5696 70.5123 75.4063 70.5123 75.1953C70.5123 74.998 70.5735 74.8381 70.6958 74.7156C70.8251 74.5931 70.9984 74.5318 71.2159 74.5318C71.4402 74.5318 71.6135 74.5897 71.7359 74.7054C71.8583 74.821 71.9194 74.9843 71.9194 75.1953C71.9194 75.3926 71.8549 75.5526 71.7257 75.6751C71.6033 75.7976 71.4335 75.8588 71.2159 75.8588ZM74.3904 82.4018V77.0429H75.4406V78.1453L75.2571 78.2677C75.3251 78.0296 75.4577 77.8118 75.6547 77.6145C75.8518 77.4103 76.0863 77.247 76.3583 77.1245C76.6303 76.9952 76.9089 76.9306 77.1944 76.9306C77.6023 76.9306 77.9421 77.0122 78.2141 77.1756C78.4861 77.332 78.69 77.5736 78.8259 77.9003C78.9618 78.2269 79.0298 78.6386 79.0298 79.1354V82.4018H77.9796V79.2068C77.9796 78.9006 77.9388 78.6488 77.8572 78.4515C77.7756 78.2473 77.6499 78.1011 77.4799 78.0126C77.3099 77.9174 77.0993 77.8765 76.8477 77.8901C76.6438 77.8901 76.4569 77.924 76.2869 77.9921C76.1169 78.0534 75.9675 78.1419 75.8383 78.2575C75.7159 78.3732 75.6173 78.5094 75.5426 78.6658C75.4745 78.8156 75.4406 78.9789 75.4406 79.1558V82.4018H74.9206C74.8321 82.4018 74.7439 82.4018 74.6555 82.4018C74.567 82.4018 74.4788 82.4018 74.3904 82.4018ZM81.4742 82.4018V77.0429H82.5245V78.1453L82.3409 78.2677C82.4088 78.0296 82.5414 77.8118 82.7386 77.6145C82.9357 77.4103 83.1702 77.247 83.4422 77.1245C83.714 76.9952 83.9928 76.9306 84.2783 76.9306C84.6862 76.9306 85.026 77.0122 85.298 77.1756C85.5698 77.332 85.7737 77.5736 85.9098 77.9003C86.0457 78.2269 86.1137 78.6386 86.1137 79.1354V82.4018H85.0634V79.2068C85.0634 78.9006 85.0227 78.6488 84.9411 78.4515C84.8595 78.2473 84.7336 78.1011 84.5638 78.0126C84.3938 77.9174 84.183 77.8765 83.9316 77.8901C83.7277 77.8901 83.5406 77.924 83.3708 77.9921C83.2008 78.0534 83.0512 78.1419 82.9222 78.2575C82.7998 78.3732 82.7012 78.5094 82.6265 78.6658C82.5584 78.8156 82.5245 78.9789 82.5245 79.1558V82.4018H82.0045C81.916 82.4018 81.8276 82.4018 81.7393 82.4018C81.6509 82.4018 81.5625 82.4018 81.4742 82.4018ZM91.0563 82.5038C90.5057 82.5038 90.0162 82.3882 89.588 82.1568C89.1664 81.9187 88.8334 81.5954 88.5887 81.1871C88.3507 80.7788 88.2318 80.3092 88.2318 79.7784C88.2318 79.3566 88.2997 78.9721 88.4357 78.625C88.5716 78.278 88.7585 77.9786 88.9966 77.7268C89.2413 77.4682 89.5301 77.2708 89.8633 77.1347C90.2031 76.9918 90.5702 76.9204 90.9645 76.9204C91.3112 76.9204 91.634 76.9885 91.9332 77.1245C92.2322 77.2539 92.4905 77.4341 92.7081 77.6655C92.9325 77.8969 93.1023 78.1725 93.218 78.4923C93.3403 78.8054 93.398 79.1489 93.3913 79.5233L93.3811 79.9724H89.0068L88.7722 79.1354H92.4736L92.3207 79.3089V79.0639C92.3003 78.8394 92.2254 78.6386 92.0963 78.4617C91.9671 78.2848 91.804 78.1453 91.6069 78.0432C91.4096 77.9411 91.1955 77.8901 90.9645 77.8901C90.5974 77.8901 90.288 77.9615 90.0366 78.1044C89.785 78.2405 89.5946 78.4446 89.4656 78.7169C89.3364 78.9823 89.2719 79.3122 89.2719 79.707C89.2719 80.0813 89.3499 80.408 89.5064 80.6869C89.6627 80.9592 89.8837 81.17 90.1692 81.3198C90.4547 81.4695 90.7843 81.5443 91.1582 81.5443C91.4234 81.5443 91.6681 81.5002 91.8924 81.4116C92.1234 81.3231 92.3716 81.1633 92.6368 80.9319L93.167 81.677C93.0038 81.8403 92.8032 81.9832 92.5654 82.1057C92.3342 82.2282 92.0861 82.327 91.821 82.4018C91.5626 82.4699 91.3077 82.5038 91.0563 82.5038ZM95.5523 82.4018V77.0429H96.6127V78.7271L96.5107 78.3188C96.5856 78.0603 96.7113 77.8255 96.888 77.6145C97.0715 77.4035 97.279 77.2368 97.51 77.1143C97.7481 76.9918 97.9928 76.9306 98.2442 76.9306C98.3598 76.9306 98.4685 76.9408 98.5705 76.9612C98.6793 76.9816 98.7642 77.0054 98.8254 77.0326L98.5501 78.1759C98.4685 78.1419 98.3767 78.1146 98.2748 78.0942C98.1796 78.0669 98.0845 78.0534 97.9892 78.0534C97.8057 78.0534 97.629 78.0909 97.459 78.1657C97.2959 78.2338 97.1498 78.3323 97.0206 78.4617C96.8982 78.5842 96.7998 78.7304 96.7249 78.9006C96.6502 79.0639 96.6127 79.2443 96.6127 79.4416V82.4018H95.5523Z" fill="#072408"/>
</svg>
