<svg width="27" height="23" viewBox="0 0 27 23" fill="none" xmlns="http://www.w3.org/2000/svg">
<path d="M1.55274 9H25.4473C26.3038 9 27 8.29102 27 7.41875C27 7.10508 26.9072 6.8 26.7384 6.54219L23.5527 1.66953C23.1772 1.09375 22.5485 0.75 21.8692 0.75H5.13502C4.45992 0.75 3.827 1.09375 3.45148 1.66953L0.261603 6.53789C0.092827 6.8 0 7.10508 0 7.41445C0 8.29102 0.696203 9 1.55274 9ZM2.70042 10.375V17.25V20.6875C2.70042 21.8262 3.60759 22.75 4.72574 22.75H14.1772C15.2954 22.75 16.2025 21.8262 16.2025 20.6875V17.25V10.375H13.5021V17.25H5.40084V10.375H2.70042ZM21.6034 10.375V21.375C21.6034 22.1355 22.2068 22.75 22.9536 22.75C23.7004 22.75 24.3038 22.1355 24.3038 21.375V10.375H21.6034Z" fill="#072408"/>
</svg>
